<?xml version="1.0" encoding="UTF-8" standalone="no"?>
<svg width="512px" height="512px" viewBox="0 0 512 512" version="1.1" xmlns="http://www.w3.org/2000/svg" xmlns:xlink="http://www.w3.org/1999/xlink" xmlns:sketch="http://www.bohemiancoding.com/sketch/ns">
    <!-- Generator: Sketch 3.3.2 (12043) - http://www.bohemiancoding.com/sketch -->
    <title>torch</title>
    <desc>Created with Sketch.</desc>
    <defs></defs>
    <g id="Page-1" stroke="none" stroke-width="1" fill="none" fill-rule="evenodd" sketch:type="MSPage">
        <g id="torch" sketch:type="MSLayerGroup">
            <rect id="Rectangle-1-Copy" fill="#82174B" sketch:type="MSShapeGroup" x="0" y="0" width="512" height="512"></rect>
            <g id="Torch" transform="translate(107.000000, 94.000000)" fill="#FFFFFF" sketch:type="MSShapeGroup">
                <path d="M173.671221,297.056073 C244.743998,285.502369 299,223.837269 299,149.5 C299,66.9334299 232.06657,0 149.5,0 C66.9334299,0 0,66.9334299 0,149.5 C0,224.207629 54.7979742,286.116506 126.392316,297.225024 L114.988729,266.901846 C64.6734027,251.854437 28,205.209985 28,150 C28,82.6212605 82.6212605,28 150,28 C217.378739,28 272,82.6212605 272,150 C272,205.209985 235.326597,251.854437 185.011317,266.901833 L173.671217,297.056081 Z" id="Oval-1"></path>
                <path d="M205.480767,176.000002 C209.025134,168.231498 211,159.596377 211,150.5 C211,116.660156 198.915039,99.1835938 187.291016,82.8564453 C187.291016,97.5507812 184.818359,109.029297 174.414062,116.660156 C174.414062,85.3398438 149.5,50.5820312 149.5,50.5820312 C137.992188,69.3945312 127.152344,78.9023438 111.082031,95.03125 C95.0117188,111.160156 88,131.152344 88,150.5 C88,159.596377 89.9748655,168.231498 93.5192331,176.000002 L205.48078,176 Z" id="Oval-3"></path>
                <path d="M76.6616656,230 L113.963415,230 L149.5,324 L185.036585,230 L185.036585,230 L224.338334,230 C236.964867,218.267309 246.792214,203.563088 252.707711,187 L48.2922892,187 C54.2077861,203.563088 64.0351327,218.267309 76.6616656,230 Z" id="Triangle-1"></path>
            </g>
        </g>
    </g>
</svg>