<svg width="529" height="301" viewBox="0 0 529 301" fill="none" xmlns="http://www.w3.org/2000/svg">
<path d="M339.335 11.6284L326.824 30.2422C366.493 56.1795 384.802 97.9843 384.802 147.113C384.802 196.241 366.493 238.656 326.824 264.288L339.335 282.902C390.294 255.744 414.096 202.954 414.096 147.418C414.096 91.8814 390.294 38.7862 339.335 11.6284Z" fill="white"/>
<path d="M509.725 300.137C515.828 300.137 522.846 299.832 528.949 298.306V274.505C524.677 275.42 520.71 275.725 516.743 275.725C499.35 275.725 491.722 265.961 491.722 248.567V186.171C491.722 162.065 478.295 153.216 468.836 149.859C478.295 146.807 491.722 137.653 491.722 113.852V51.7609C491.722 31.6213 502.096 24.603 516.438 24.603C520.405 24.603 524.982 24.9081 528.949 25.8236V2.32742C522.846 0.801694 517.659 0.191406 510.64 0.191406C484.398 0.191406 464.869 16.6692 464.869 50.2351V108.664C464.869 129.719 449.917 136.127 439.237 136.433V163.285C449.917 163.285 464.869 170.304 464.869 191.359V251.924C464.869 281.218 483.483 300.137 509.725 300.137Z" fill="white"/>
<path d="M193.967 113.592C193.967 126.682 183.356 137.293 170.266 137.293C157.176 137.293 146.564 126.682 146.564 113.592C146.564 100.502 157.176 89.8906 170.266 89.8906C183.356 89.8906 193.967 100.502 193.967 113.592Z" fill="white"/>
<rect x="0.542969" y="150.417" width="25.8388" height="189.031" transform="rotate(-45 0.542969 150.417)" fill="white"/>
<rect x="18.8154" y="168.688" width="25.8388" height="189.031" transform="rotate(-135 18.8154 168.688)" fill="white"/>
<path d="M293.989 18.9517H219.229V43.3632H267.136V257.27H219.229V281.681H293.989V18.9517Z" fill="white"/>
</svg>
