<svg xmlns="http://www.w3.org/2000/svg" viewBox="0 0 600 600"><path fill="#236396" d="M0 0h600v600H0z"/><path fill="#FFF" d="M462.8 192.6l-143.7-77c-4.8-2.6-11.2-4-18.1-4-6.9 0-13.3 1.4-18.1 4l-143.7 77c-10.7 5.7-18.7 19.1-18.7 31.3V376c0 12.1 8.1 25.6 18.7 31.3l143.7 76.9c10 5.4 26.2 5.4 36.2 0l143.7-76.9c10.7-5.7 18.7-19.1 18.7-31.3V223.9c.1-12.2-8-25.6-18.7-31.3zm-73.1 71.7v36.5l-78.2 41.9V305l1.3-.4c2.5-.7 4.5-1.5 6.2-2.4l70.7-37.9zm-96.9-130c1.9-1 5-1.5 8.2-1.5v152.4c-3.2 0-6.2-.6-8.1-1.6l-139.3-74.7 139.2-74.6zM290.4 305v37.8l-80.9-43.4v-36.5l73.4 39.4c1.7.9 3.7 1.7 6.2 2.4l1.3.3zm-148.9-78.6l46.8 25.1V288l-46.8-25.1v-36.5zm0 60.5l80 42.9v38.8l-80-42.9v-38.8zm46.9 122.8l-39.2-21c-3.8-2-7.6-8.3-7.6-12.6v-26.3l46.8 25.1v34.8zm102 54.6L209.5 421v-34.8l73.4 39.3c1.7.9 3.7 1.7 6.2 2.4l1.3.4v36zm10.6-55.8c-3.2 0-6.2-.6-8.1-1.6L242.7 380v-38.8l40.2 21.6c9.9 5.3 26.3 5.3 36.2 0l39.1-21v38.8l-49.1 26.3c-1.9 1-4.8 1.6-8.1 1.6zm91.7 12.4l-81.1 43.4v-36l1.3-.4c2.5-.7 4.5-1.5 6.2-2.4l73.5-39.4v34.8zm67.8-44.9c0 4.3-3.8 10.6-7.6 12.6l-39.1 20.9v-34.8l46.7-25V376zm0-50.3l-81.1 43.5v-38.8l81.1-43.5v38.8zm0-62.8l-49.6 26.6V253l49.6-26.6v36.5z"/></svg>