<?xml version="1.0" encoding="UTF-8" standalone="no"?>
<svg width="512px" height="512px" viewBox="0 0 512 512" version="1.1" xmlns="http://www.w3.org/2000/svg" xmlns:xlink="http://www.w3.org/1999/xlink" xmlns:sketch="http://www.bohemiancoding.com/sketch/ns">
    <!-- Generator: Sketch 3.3.2 (12043) - http://www.bohemiancoding.com/sketch -->
    <title>Group</title>
    <desc>Created with Sketch.</desc>
    <defs></defs>
    <g id="Page-1" stroke="none" stroke-width="1" fill="none" fill-rule="evenodd" sketch:type="MSPage">
        <g id="Group" sketch:type="MSLayerGroup">
            <rect id="Rectangle-1" fill="#D6ECE1" sketch:type="MSShapeGroup" x="0" y="0" width="512" height="512"></rect>
            <g id="Head-+-Eyes-+-Bill" transform="translate(113.500000, 85.517578)" sketch:type="MSShapeGroup">
                <path d="M285,142.5 C285,63.7994232 221.200577,0 142.5,0 C63.7994232,0 0,63.7994232 0,142.5 C0,196.573916 30.1187235,243.613227 74.4954393,267.757202 L121.430395,171.583734 C132.498448,148.904411 153.615921,148.906641 164.682886,171.583734 L211.382716,267.275409 C255.278147,242.991033 285,196.216472 285,142.5 Z" id="Head" fill="#D1603D"></path>
                <g id="Eyes" transform="translate(36.738281, 182.578125)" fill="#2D142C">
                    <path d="M8.90625,18.9257812 C13.8250361,18.9257812 17.8125,14.9383173 17.8125,10.0195312 C17.8125,5.1007452 13.8250361,1.11328125 8.90625,1.11328125 C3.98746395,1.11328125 0,5.1007452 0,10.0195312 C0,14.9383173 3.98746395,18.9257812 8.90625,18.9257812 Z" id="Eye"></path>
                    <circle id="Eye" cx="204.008789" cy="9.84851514" r="8.90625"></circle>
                </g>
                <path d="M142.5,322.942389 C94.4027698,322.942389 79.8187084,308.325567 79.8187084,308.325567 C72.3165274,303.680021 69.374983,293.479593 73.2550613,285.529003 L127.433369,174.513329 C136.061864,156.832855 150.053749,156.837633 158.679912,174.513329 L212.646036,285.094221 C216.521952,293.036283 213.764116,303.522211 206.073839,307.880723 C206.073839,307.880723 190.59723,322.942389 142.5,322.942389 Z M151.40625,293.362671 C153.865643,293.362671 155.859375,291.368939 155.859375,288.909546 C155.859375,286.450153 153.865643,284.456421 151.40625,284.456421 C148.946857,284.456421 146.953125,286.450153 146.953125,288.909546 C146.953125,291.368939 148.946857,293.362671 151.40625,293.362671 Z M133.59375,293.362671 C136.053143,293.362671 138.046875,291.368939 138.046875,288.909546 C138.046875,286.450153 136.053143,284.456421 133.59375,284.456421 C131.134357,284.456421 129.140625,286.450153 129.140625,288.909546 C129.140625,291.368939 131.134357,293.362671 133.59375,293.362671 Z" id="Bill" fill="#2D142C"></path>
            </g>
        </g>
    </g>
</svg>