<?xml version="1.0" encoding="utf-8"?>
<!-- Generator: Adobe Illustrator 18.0.0, SVG Export Plug-In . SVG Version: 6.00 Build 0)  -->
<!DOCTYPE svg PUBLIC "-//W3C//DTD SVG 1.1//EN" "http://www.w3.org/Graphics/SVG/1.1/DTD/svg11.dtd">
<svg version="1.1" id="Layer_1" xmlns="http://www.w3.org/2000/svg" xmlns:xlink="http://www.w3.org/1999/xlink" x="0px" y="0px"
	 viewBox="200 0 560 560" enable-background="new 200 0 560 560" xml:space="preserve">
<rect x="188.1" y="-11.5" fill="#2A6D46" width="603.9" height="582.9"/>
<g>
	<path opacity="0.1" d="M234.4-54.4h-13C259.9,4.4,298.5,63,336.6,122c-20.7,12.7-41.4,25.3-62.2,37.6c-6-3.4-13-5.8-16-12.5
		C225,91.1,190.8,35.5,156-19.7V0.6c12.3,20.2,25.2,40.1,37.6,60.2c-12.6-2.6-25.1-5.3-37.6-8.1v11c13.2,2.8,26.4,5.5,39.5,8.8
		c6.5,0.4,9.2,6.9,12.6,11.6c13.4,22.7,27.3,45,40.3,67.9c-30.9-6-61.6-13.2-92.3-20v28.4c34.2,7.6,68.3,15.3,102.6,22.3
		c-2.3,15.9-4.8,31.8-7.6,47.6c-31.7-7.4-63.4-15.1-95-22.9v11c30.9,7.6,61.9,15.2,92.9,22.5c-4,18.1-7.9,36.2-11.9,54.3
		c-27-6.8-54-13.8-81-20.7v11.1c26.1,6.7,52.3,13.5,78.4,20.2c-2.1,9.3-4.3,18.6-6.2,28c-24.2-4.6-48.2-9.7-72.3-15V330
		c23.1,5.1,46.2,10.1,69.3,15.3c-2.2,10-4.4,20-6.5,30c-20.9-4.5-41.9-9-62.8-13.5v11c20.1,4.3,40.1,8.7,60.1,13
		c-2.7,11.2-5.4,22.5-8,33.8c-17.4-3.2-34.8-6.8-52.1-10.6v10.9c16.3,3.7,32.6,7.4,48.8,11.2c-2.6,9.8-5.1,19.6-7.6,29.5
		c-13.8-3.2-27.5-6.5-41.2-9.7v11.1c14.2,3.5,28.4,7.1,42.6,10.8c1.6,7.3,3.3,14.6,5,21.9c-15.9,5.2-31.7,10.3-47.6,15.4v28.9
		c18.6-5.8,37.3-11.6,56-16.9c2.6,8.3,5.3,16.5,8,24.8c-21.4,6.3-42.7,12.7-64.1,19V577c22.5-6.6,44.9-13.2,67.4-20
		c1.9,5.6,3.9,11.2,5.8,16.9c-24.4,7.5-48.8,14.8-73.2,22.2v11.1c25.8-7.9,51.7-15.6,77.8-22.3c0.1,3.7,0.4,11.2,0.6,14.9
		c-4.6,4.3-11.5,4.7-17.1,7.1c-19.9,6.1-39.7,12.2-59.5,18.4H194c15-4.6,30-9.3,45-13.9c1.4,4.6,2.9,9.2,4.4,13.9h11.5
		c-2.1-5.6-4.1-11.2-6.1-16.8c62.3-19.4,125-38,187.7-56.4c-5.4,9.5-9.3,22.4-21.2,25.5c-52.9,16.1-105.9,31.9-158.9,47.7h37.7
		c45-13.5,90-27,135-40.6c9-12,16-25.4,22.7-38.7c0.4,12.1,2.4,24.5-0.3,36.5C441.8,598,428.6,611,416,624c-0.9,0.5-1.8,1-2.8,1.4
		h16.7c11.4-13.7,25.7-25.3,32.9-41.8c1.7-12.8,0.4-25.7,0.1-38.5c28.1-8.7,56.2-17.7,84.7-25.4c27.7,7.3,56.6-1.3,83-10.4
		c15.5,29.9,29.1,60.9,41.3,92.3c-20.4-1.2-40.4-5.2-60.6-8.2c-1,8-1.8,16.1-2.6,24.1c-25.6,7.9-52.6,5.9-79.1,7.8h81.2
		c0.5-0.4,1-0.9,1.6-1.2c0.3,0.4,0.5,0.8,0.8,1.2h13.2c-3.1-6.5-5.6-13.2-7.6-20.2c20.1,4.3,40.5,6.3,60.9,8.1
		c-6.9,4.4-14,8.3-21.2,12h24c0.1,0,0.2-0.1,0.3-0.1c0,0,0,0.1,0.1,0.1h48.2c-10.1-23-19.9-46-29.9-69c36.3-8.4,73.6-3.3,110.1-7.7
		c9-5.8,16.8-13.2,24.4-20.9v-15.3c-6.5,6.3-13,12.5-19.2,19c-10.4,12.4-27.9,7.8-42,8c-2.6-10.7-7.7-21.3-7.5-32.2
		c22.6-8.4,45.7-15.2,68.7-22.5v-11.4c-24.4,7.6-48.7,15.4-73,23.6c-1.8-7.2-3.5-14.4-5.1-21.5c26.1-7.4,52.1-15.4,78.1-23.4v-11.2
		c-27,8.2-54.1,16.3-81.2,24.2c-2.2-9.7-4.5-19.2-6.8-28.8c29.4-7.9,58.7-16.1,88-24.4v-11.2c-30.4,8.6-60.8,17.2-91.3,25.4
		c-2.4-8.4-4.7-16.6-7.1-24.9c32.9-9.5,65.6-19.4,98.4-29.2v-11.2c-33.8,10.1-67.6,20.2-101.4,30.1c-2.1-6.9-4.2-13.6-6.2-20.5
		c35.8-10.7,71.7-21.3,107.6-31.8v-28.8c-32.8,9.6-65.5,19.2-98.2,28.9c-37.1,11.4-75.3,18.8-111.9,32c-9-18.4-17.8-36.8-26.5-55.3
		c78.7-24.1,157.8-46.6,236.7-70v-28.9c-8.4,2.6-16.9,5.1-25.3,7.7c-3.4-16-9.9-32.2-6.2-48.8c8.9-43.6,18.9-87,27.8-130.5
		c1.2,0.3,2.4,0.6,3.6,0.8V34.1c-0.3-0.1-0.7-0.2-1-0.3c0.3-1.5,0.7-3,1-4.5V-20c-3.9,17.3-7.9,34.5-11.9,51.8
		c-10.6-2.6-21.1-5.1-31.6-7.6c6.1-26.2,12-52.4,17.9-78.6h-11c-5.7,25.6-11.5,51.1-18,76.5c-11.3-3-22.6-5.8-33.9-8.7
		c4.8-22.6,9.8-45.2,14.8-67.8h-28.3C721,4.8,707.5,63.9,694.3,123.1c-36.8-14.8-74.9-26.2-113-37.3C593.3,39.2,604.4-7.5,615-54.4
		h-39.7c-13.1,61.7-26,123.5-38.1,185.4c-2.1,12.7-6,25.1-11.2,36.9c-25.4-36.9-49.3-74.8-76.3-110.6
		C426.4,20.3,403.4-17,380.5-54.4H325c27.6,42,55.1,83.9,82.6,125.9c-20.6,15-41.3,29.8-62.2,44.4C308.8,58.8,271.2,2.4,234.4-54.4z
		 M717.8,373.2c17.2,54.9,29.9,111,45.5,166.4c-7.9,0.4-15.7,0.8-23.5,1.3c-22.6-51.9-47.5-102.7-68.9-155
		C686.4,381.2,702.1,377,717.8,373.2z M660.4,388.5c21.1,51.7,45.3,102.1,68.1,153.1c-10.7,1.5-21.3,3-31.9,4.5
		c-21.5-49.7-44.2-98.8-65.9-148.3C640.6,394.6,650.5,391.6,660.4,388.5z M342.4,131c10.2,16.3,20.6,32.5,30.3,49.2
		c-26.9-5.4-53.3-12.5-80.2-17.8C308.7,151.3,325.7,141.3,342.4,131z M259.7,243.9c63,16.5,126.1,32.7,189.2,49
		c18.6,2.2,20.9,23.8,28.5,37.2c-17,4.4-34.1,15-52,9.6C366.1,325.9,306.6,313,247.6,298C251.3,279.9,255.3,261.9,259.7,243.9z
		 M417,348.4c-41,13.9-82.7,25.6-124.2,38.1c4.4-20.9,9.6-41.6,14.8-62.4C344.1,331.5,380.4,341,417,348.4z M245.7,308.5
		c17.2,4.4,34.5,8.5,51.6,13.7c-6.4,21.7-10.2,44.1-16.6,65.8c-16,10.3-37.3,12.8-55.6,7.3C232.2,366.4,237,336.9,245.7,308.5z
		 M213.7,491.9c-11.9-28.7,2.6-57.3,8.2-85.5c13.3,2,27.1,4.8,40.3,0.2c73.7-21,146.9-43.8,220-66.4c8.7,22.1,18.7,43.8,26.6,66.2
		C410.8,436.4,312.2,464,213.7,491.9z M518.8,432c2.1,6.7,4.3,13.5,6.6,20.3c-30.1,9-59.9,18.9-90,27.7c-2.1-6.9-4-13.8-6-20.7
		C459.2,450.1,489,441.1,518.8,432z M230,543.4c-2.6-8.5-5.2-17-7.6-25.4c65.8-17.9,131.1-37.3,196.7-55.6c2,6.9,4,13.9,6.1,20.9
		C360.1,503.3,295.3,524.2,230,543.4z M234.7,553.3c64.6-19.2,128.8-39.8,193.3-59.6c1.5,6,3.1,12.1,4.6,18.2
		c-64.4,20-129,39.2-193.5,58.9C237.5,565,236.1,559.1,234.7,553.3z M245.4,597.5c-0.6-4.2-1.8-12.6-2.4-16.7
		c63.7-19.2,127.5-38.2,190.9-58.1c1.6,4.1,4.6,12.2,6.2,16.3C375.5,559.4,310.5,578.7,245.4,597.5z M438.3,490.9
		c29.8-10.2,60.2-18.7,90.1-28.6c2.1,6.6,4.5,13.1,6.6,19.9c-30.5,9.2-61.1,17.8-91.7,26.6C441.6,502.9,439.9,496.9,438.3,490.9z
		 M449.7,537.2c-1.4-6-2.8-12-4.2-17.9c30.8-8.5,61.4-17.5,92-26.6c1.6,5.6,3.3,11.2,5,16.9C511.5,518.5,480.9,528.7,449.7,537.2z
		 M625.7,499.8c-22.9,8-47,13.2-71.3,11.4c-7.7-27.5-15.4-54.9-25.2-81.7c18.5-6.5,37.4-11.9,56.3-17.1
		C598.8,441.6,611,471.3,625.7,499.8z M789.9,34.9c10.6,2.4,21.2,4.9,31.8,7.4c-9,42.7-18.3,85.4-27.5,128.1
		c-5.3,19.1,2.2,38.2,5.5,57c-9.8,2.5-19.6,5.2-29.4,7.9c-20-44.9-6.2-93.7,5.2-138.8C780.2,75.9,785,55.4,789.9,34.9z M715.4,169.2
		c5.6-49.1,19.8-96.7,29.3-145.1c11.4,2.7,22.9,5.4,34.3,8.3c-8.5,41.3-19.9,82-27.8,123.4c-5.5,27.7-0.5,56.2,8.1,82.8
		c-9.7,2.9-19.4,5.9-29,8.8C721.5,222.3,711.9,196.3,715.4,169.2z M663.3,123c9.6,3.6,19.2,7.3,28.8,11.1c-9,40.6-5,83.1,11.7,121.3
		c-10,2.7-19.9,5.6-29.9,8.4c-6.4-21.3-13.8-42.4-18.4-64.2C649.9,173.9,658.2,148.1,663.3,123z M653,119.2
		c-4.9,26.1-14.1,52.8-8.5,79.6c4.4,23.1,12.3,45.2,19,67.7c-10.9,3.6-21.9,7-32.9,10.4c-7.8-25.6-16.9-50.8-22.3-77
		c-6.6-30.9,5.6-61.2,11.5-91.2C630.8,112.1,641.9,115.6,653,119.2z M578.7,96.3c10.2,2.9,20.3,5.9,30.5,8.9
		c-6,30.9-17.7,62-12.1,93.9c5.1,27.6,15.1,53.9,22.9,80.8c-11.2,3.1-22.4,6.3-33.5,9.2c-13.5-29.7-27.5-59.1-40.5-88.9
		C569.7,170.6,570.3,131.7,578.7,96.3z M502.8,233.3c25.4,50.4,48.7,101.8,70.4,153.9c-17.8,4.9-35.6,10.1-53.2,15.7
		c-15.8-35.2-28.4-71.7-46.4-105.8c-3.7-7.7-11.3-12-19.2-13.8c-64.2-16.7-128.4-33.1-192.6-49.9c2.1-16.1,4.7-32,8.2-47.9
		c48.6,10.4,96.8,22.6,145.5,32.4C444.5,223.3,472.5,239.4,502.8,233.3z M413.9,80.8c15.4,21.6,32.2,42.7,43.7,66.8
		c0.6,18.7,11.8,33.9,21.5,49c-31.5-3.9-63.6-5-94.3-13.8c-8.3-20.8-21.9-38.6-33.3-57.7C372.2,110.2,393,95.3,413.9,80.8z"/>
</g>
<path fill="none" d="M758.7,280c0,153.9-124.7,278.7-278.7,278.7S201.3,433.9,201.3,280S326.1,1.3,480,1.3S758.7,126.1,758.7,280z"
	/>
<g>
	
		<linearGradient id="SVGID_1_" gradientUnits="userSpaceOnUse" x1="485.7221" y1="176.8331" x2="392.7841" y2="427.994" gradientTransform="matrix(1.0182 0 0 -1.0182 200 570.1818)">
		<stop  offset="5.000000e-03" style="stop-color:#000000;stop-opacity:0"/>
		<stop  offset="0.203" style="stop-color:#010402;stop-opacity:0.157"/>
		<stop  offset="0.416" style="stop-color:#021109;stop-opacity:0.326"/>
		<stop  offset="0.636" style="stop-color:#052713;stop-opacity:0.501"/>
		<stop  offset="0.86" style="stop-color:#094522;stop-opacity:0.679"/>
		<stop  offset="0.887" style="stop-color:#0A4924;stop-opacity:0.7"/>
	</linearGradient>
	<path fill="url(#SVGID_1_)" d="M498.6,313.5l130.7,24.6l55.7-49.5l12.4-6.2l158.1,19.7l-48.8-152.4L551,150.4l-22.1-58.6
		l-22.4,29.8l14.6,36l-45.7,1.4l25.3,58l-48.7,61.2"/>
	
		<linearGradient id="SVGID_2_" gradientUnits="userSpaceOnUse" x1="428.4474" y1="-179.3196" x2="333.7503" y2="193.3803" gradientTransform="matrix(1.0182 0 0 -1.0182 200 570.1818)">
		<stop  offset="5.000000e-03" style="stop-color:#000000;stop-opacity:0"/>
		<stop  offset="0.28" style="stop-color:#020906;stop-opacity:0.145"/>
		<stop  offset="0.726" style="stop-color:#092115;stop-opacity:0.381"/>
		<stop  offset="0.952" style="stop-color:#0D301F;stop-opacity:0.5"/>
	</linearGradient>
	<path fill="url(#SVGID_2_)" d="M535.5,665c37.3,0,249.1-74.4,256.6-114.7l12.7-86.3L780,433.7L729.6,283l-197.6,30.6l-120.2-59
		l-39.2,29.7l-63.9,50l-3.6,14.5l-4.7,0.7l2.5,8.2l-6.8,8.1c0,0,78.3,185.2,86.1,201.2"/>
	<path fill="#FFFFFF" d="M783.9,135.9H489.5L475.3,159H509l-50.2,85.8H340.1c0,0-21-2.5-21,21.4l-0.1,59.9h-23.3v36.8
		c0,8.6,6.8,15.6,15.4,15.6l7.6-0.1c2.4-43.5,43.9-78,87.5-78s84.9,34.5,87.5,77.9l288.3-0.1 M592,300.9l-74.8,0.1l-32.9-56.1
		l50.2-85.8h126.9V251C645.1,252.6,611.2,261.1,592,300.9z M689.7,250.6V159h74.7v91.5H689.7z M529.5,96.9c0-12.7-10.3-23-22.9-23
		v45.9C519.2,119.9,529.5,109.7,529.5,96.9z"/>
	<path fill="#FFFFFF" d="M405,312.5c-40.6,0-73.6,33.4-73.6,74.4c0,41.2,33,74.6,73.6,74.6c40.8,0,73.8-33.4,73.8-74.6
		C478.7,345.9,445.7,312.5,405,312.5L405,312.5z M405,419.4c-17.7,0-31.9-14.6-31.9-32.4c0-17.7,14.2-32.3,31.9-32.3
		s32,14.6,32,32.3C436.8,404.8,422.7,419.4,405,419.4z"/>
</g>
</svg>
