<svg xmlns="http://www.w3.org/2000/svg" xmlns:xlink="http://www.w3.org/1999/xlink" viewBox="0 0 512 512" enable-background="new 0 0 512 512"><path fill="#FFE8D5" d="M-23-17h567v553H-23z"/><defs><path id="a" d="M103.4 33h254.8v475H103.4z"/></defs><clipPath id="b"><use xlink:href="#a" overflow="visible"/></clipPath><path clip-path="url(#b)" fill="#FA0" d="M154.7 299.7s-51.3-70.5 53.5-146.1l55.7-24.1s36.9-9.1 55.3-31.4c18.4-22.3 11.2-44.6 0-53.7-11.2-9-31.1-11.5-52.3-7.8-21.3 3.6-86.5 14.8-141.7 92 0 0 15.1-19.9 40.8-27.7 0 0-51.3 36.3-49.3 111 0 0 2-21.7 13.8-35.6-.2 0-18.6 79.2 24.2 123.4"/><g opacity=".22" clip-path="url(#b)"><defs><path id="c" d="M299.9 135h19v12h-19z"/></defs><clipPath id="d"><use xlink:href="#c" overflow="visible"/></clipPath><g clip-path="url(#d)"><defs><path id="e" d="M299.9 135h19v12h-19z"/></defs><clipPath id="f"><use xlink:href="#e" overflow="visible"/></clipPath><path clip-path="url(#f)" fill="#FF993F" d="M312.1 138.1c-3.2-.5-7.2-1.5-12.2-3.1l12.4 11.7c2.1.6 4.4.3 6.7-.5-1.9-2.9-4.3-5.6-6.9-8.1"/></g></g><g opacity=".22" clip-path="url(#b)"><defs><path id="g" d="M250.9 188.9h44.3v14.5h-44.3z"/></defs><clipPath id="h"><use xlink:href="#g" overflow="visible"/></clipPath><g clip-path="url(#h)"><defs><path id="i" d="M250.9 189h44.3v14.5h-44.3z"/></defs><clipPath id="j"><use xlink:href="#i" overflow="visible"/></clipPath><path clip-path="url(#j)" fill="#FF993F" d="M250.9 193.8l.6 6.2c6.4 2.2 13.5 3.5 21 3.5 8.2 0 15.9-1.5 22.8-4.1l-1.5-10.4-42.9 4.8z"/></g></g><g opacity=".22" clip-path="url(#b)"><defs><path id="k" d="M251.7 123.8h48.1v15.7h-48.1z"/></defs><clipPath id="l"><use xlink:href="#k" overflow="visible"/></clipPath><g clip-path="url(#l)"><defs><path id="m" d="M251.7 123.8h48.1v15.7h-48.1z"/></defs><clipPath id="n"><use xlink:href="#m" overflow="visible"/></clipPath><path clip-path="url(#n)" fill="#FF993F" d="M296.7 134.1c1.1.4 2.2.7 3.2 1l-6.1-5.8 5.4.3c-7.8-3.6-16.9-5.7-26.7-5.7-7.4 0-14.4 1.2-20.7 3.4l.9 12.3c0-.1 19.3-13.4 44-5.5"/></g></g><g opacity=".22" clip-path="url(#b)"><defs><path id="o" d="M293.7 129.2H312v8.9h-18.3z"/></defs><clipPath id="p"><use xlink:href="#o" overflow="visible"/></clipPath><g clip-path="url(#p)"><defs><path id="q" d="M293.7 129.2H312v8.9h-18.3z"/></defs><clipPath id="r"><use xlink:href="#q" overflow="visible"/></clipPath><path clip-path="url(#r)" fill="#FF993F" d="M293.7 129.2l6.1 5.8c5 1.5 8.9 2.5 12.2 3.1-3.7-3.4-8-6.3-12.9-8.6l-5.4-.3z"/></g></g><g opacity=".22" clip-path="url(#b)"><defs><path id="s" d="M293.7 129.2H312v8.9h-18.3z"/></defs><clipPath id="t"><use xlink:href="#s" overflow="visible"/></clipPath><g clip-path="url(#t)"><defs><path id="u" d="M293.7 129.2H312v8.9h-18.3z"/></defs><clipPath id="v"><use xlink:href="#u" overflow="visible"/></clipPath><path clip-path="url(#v)" fill="#FF993F" d="M293.7 129.2l6.1 5.8c5 1.5 8.9 2.5 12.2 3.1-3.7-3.4-8-6.3-12.9-8.6l-5.4-.3z"/></g></g><path clip-path="url(#b)" fill="#4A0000" d="M299.1 129.5c-7.8-3.6-16.9-5.7-26.7-5.7-7.4 0-14.4 1.2-20.7 3.4l.9 12.3s19.3-13.3 44-5.4c1.1.4 2.2.7 3.2 1 5 1.5 8.9 2.5 12.2 3.1-3.6-3.5-8-6.4-12.9-8.7M228.7 154c0 8-8.5 14.5-19.1 14.5-10.5 0-19-6.5-19-14.5s8.5-14.5 19-14.5c10.6 0 19.1 6.5 19.1 14.5"/><g opacity=".22" clip-path="url(#b)"><defs><path id="w" d="M201.4 327.5h.4v1.9h-.4z"/></defs><clipPath id="x"><use xlink:href="#w" overflow="visible"/></clipPath><g clip-path="url(#x)"><defs><path id="y" d="M201.4 327.5h.4v1.9h-.4z"/></defs><clipPath id="z"><use xlink:href="#y" overflow="visible"/></clipPath><path clip-path="url(#z)" fill="#FF993F" d="M201.8 329.1c0 .1.1.2.1.3-.2-.6-.3-1.3-.4-1.9 0 .5.1 1.1.3 1.6"/></g></g><g opacity=".22" clip-path="url(#b)"><path fill="#FF993F" d="M243.2 393.4s1.4-4.5 3-11.5l-3 11.5z"/></g><g opacity=".22" clip-path="url(#b)"><path fill="#FF993F" d="M219.3 389.1c-1.1-3.6-11.9-37.6-17.5-59.7 4.3 18.6 10 38.5 17.5 59.7"/></g><g><defs><path id="A" d="M296.5 457.3l4.6 11.5c29.8-24 30.8-61.8 28.7-82.4-16.6-9.7-38.3-21.2-58.9-28.4 41.4 68.5 25.6 99.3 25.6 99.3"/></defs><clipPath id="B"><use xlink:href="#A" overflow="visible"/></clipPath><linearGradient id="C" gradientUnits="userSpaceOnUse" x1="171.466" y1="384.303" x2="176.398" y2="384.303" gradientTransform="matrix(15.9287 8.423 9.1965 -14.589 -6013.163 4549.817)"><stop offset="0" stop-color="#E6801C"/><stop offset=".094" stop-color="#EA8F36"/><stop offset=".219" stop-color="#EF9F51"/><stop offset=".356" stop-color="#F3AB66"/><stop offset=".507" stop-color="#F5B475"/><stop offset=".684" stop-color="#F7B97E"/><stop offset=".951" stop-color="#F7BB81"/><stop offset="1" stop-color="#F7BB81"/></linearGradient><path clip-path="url(#B)" fill="url(#C)" d="M286.1 333.8l98.2 51.9L316.6 493l-98.1-51.9"/></g><g><defs><path id="D" d="M314.2 226.9s3.2 8.8-1.1 11.7c1.6 7.2 2.9 15.3 3.7 24.5.3 3.1.6 6.3 1 9.6 2.5 1.1 5.8 1.7 10 1.2 15.3-1.8 11.2-45.2-6.4-54.3h-.5c-2.2.1-10.1.5-6.7 7.3"/></defs><clipPath id="E"><use xlink:href="#D" overflow="visible"/></clipPath><linearGradient id="F" gradientUnits="userSpaceOnUse" x1="173.591" y1="380.863" x2="178.524" y2="380.863" gradientTransform="matrix(6.1295 -3.2413 -3.539 -5.614 591.78 2957.96)"><stop offset="0" stop-color="#E6801C"/><stop offset=".063" stop-color="#EA8F36"/><stop offset=".145" stop-color="#EF9F52"/><stop offset=".235" stop-color="#F3AC67"/><stop offset=".335" stop-color="#F5B476"/><stop offset=".452" stop-color="#F7B97E"/><stop offset=".632" stop-color="#F7BB81"/><stop offset="1" stop-color="#F7BB81"/></linearGradient><path clip-path="url(#E)" fill="url(#F)" d="M284.9 233.4l50.1-26.5 34 53.9-50.1 26.5"/></g><g><defs><path id="G" d="M220.9 163.6c0 11.3 6.1 21.5 15.9 28.7l1.3-4.6 12.8-7s8.4 36.6 33.2 33.6c0 0 11.9.1 9.2-14l1.9-.9c.1 0 .1-.1.2-.1l1.8-.9.1.1c15.9-6.8 26.8-19.9 26.8-34.9 0-6.2-1.8-12.1-5.1-17.4-1.9-2.9-4.2-5.7-6.8-8.2-3.2-.5-7.2-1.5-12.2-3.1-1-.3-2.1-.6-3.2-1-24.7-7.8-44 5.4-44 5.4l-.9-12.3c-18.3 6.3-31 20.3-31 36.6"/></defs><clipPath id="H"><use xlink:href="#G" overflow="visible"/></clipPath><linearGradient id="I" gradientUnits="userSpaceOnUse" x1="166.414" y1="392.195" x2="171.346" y2="392.195" gradientTransform="matrix(20.9206 0 0 -19.161 -3260.617 7686.64)"><stop offset="0" stop-color="#E6801C"/><stop offset=".094" stop-color="#EA8F36"/><stop offset=".219" stop-color="#EF9F51"/><stop offset=".356" stop-color="#F3AB66"/><stop offset=".507" stop-color="#F5B475"/><stop offset=".684" stop-color="#F7B97E"/><stop offset=".951" stop-color="#F7BB81"/><stop offset="1" stop-color="#F7BB81"/></linearGradient><path clip-path="url(#H)" fill="url(#I)" d="M220.9 126.2h103.2v91.1H220.9z"/></g><g><path fill="#F56F12" d="M295.4 199.3c.6-.2 1.2-.5 1.9-.8 0-.1-.1-.1-.1-.1l-1.8.9z"/><defs><filter id="J" filterUnits="userSpaceOnUse" x="192" y="180.7" width="166.2" height="223.6"><feColorMatrix values="-1 0 0 0 1 0 -1 0 0 1 0 0 -1 0 1 0 0 0 1 0" color-interpolation-filters="sRGB" result="source"/><feFlood result="back" flood-color="#fff" flood-opacity="1"/><feBlend in="source" in2="back"/></filter></defs><mask maskUnits="userSpaceOnUse" x="192" y="180.7" width="166.2" height="223.6" id="M"><g filter="url(#J)"><defs><path id="K" d="M192 180.7h166.2v223.6H192z"/></defs><clipPath id="L"><use xlink:href="#K" overflow="visible"/></clipPath><path clip-path="url(#L)" d="M188.8 180.7h169.4v223.6H188.8z"/></g></mask><g mask="url(#M)"><defs><path id="N" d="M192 180.7h166.2v223.6H192z"/></defs><clipPath id="O"><use xlink:href="#N" overflow="visible"/></clipPath><g clip-path="url(#O)"><defs><path id="P" d="M238.1 187.7l-1.3 4.6-12.1 44c-4.4 2.2-9.4 2.6-15 .5-16.8-6.5-14.6-30.9-11.6-45.3-3.7 16.3-6 34.8-6.1 55.6v1.7c.1 23.2 2.9 49.3 9.4 78.6-4.3-22 19.5-29.4 19.5-29.4h.2l22.2 53.1c8.6.9 18 3.4 27.7 6.8 20.6 7.2 42.3 18.7 58.9 28.4 16.8 9.9 28.5 17.9 28.5 17.9-23.8-32.5-35.7-88.4-40.4-131.5-.4-3.3-.7-6.5-1-9.6-.8-9.2-2.2-17.3-3.7-24.5-5.8-26-15-39-15.8-40.1-.6.2-1.2.5-1.9.8l-.2.1-1.9.9c2.6 14.1-9.2 14-9.2 14-24.8 3-33.2-33.6-33.2-33.6l-13 7z"/></defs><clipPath id="Q"><use xlink:href="#P" overflow="visible"/></clipPath><radialGradient id="R" cx="169.696" cy="389.19" r="4.934" gradientTransform="matrix(48.5002 0 0 -44.4213 -7796.043 17558.144)" gradientUnits="userSpaceOnUse"><stop offset="0" stop-color="#B5475C"/><stop offset=".917" stop-color="#B5475C"/><stop offset="1" stop-color="#BD554C"/></radialGradient><path clip-path="url(#Q)" fill="url(#R)" d="M192 180.7h166.2v223.6H192z"/></g></g><g opacity=".22"><defs><path id="S" d="M200.9 297.3h51.7v96.1h-51.7z"/></defs><clipPath id="T"><use xlink:href="#S" overflow="visible"/></clipPath><g clip-path="url(#T)"><defs><path id="U" d="M200.9 297.3h51.7v96.1h-51.7z"/></defs><clipPath id="V"><use xlink:href="#U" overflow="visible"/></clipPath><path clip-path="url(#V)" fill="#FF993F" d="M252.6 339.2c-.9-6.4-2-15.2-3-25.8-4-11.5-12.6-18.6-28.7-15.4 0 0-23.8 7.4-19.5 29.4.1.6.3 1.3.4 1.9 5.6 22 16.3 56.1 17.5 59.7.5 1.4 1 2.8 1.5 4.3h22.3l3-11.5c2.7-10.6 6-27 6.5-42.6"/></g></g><g opacity=".22"><defs><path id="W" d="M250.7 181.4h.1v.8h-.1z"/></defs><clipPath id="X"><use xlink:href="#W" overflow="visible"/></clipPath><g clip-path="url(#X)"><defs><path id="Y" d="M250.7 181.4h.1v.8h-.1z"/></defs><clipPath id="Z"><use xlink:href="#Y" overflow="visible"/></clipPath><path clip-path="url(#Z)" fill="#FF993F" d="M250.8 181.4c0 .3-.1.5-.1.8 0-.3.1-.6.1-.8"/></g></g><path fill="#FF993F" d="M198.1 191.6c.9-3.7 1.8-7.3 2.8-10.9 0 0-1.5 4.5-2.8 10.9" opacity=".22"/><path fill="#FF993F" d="M209.7 236.9c23.9 9.2 37.2-28.6 41-54.7.1-.3.1-.5.1-.8 0-.2.1-.4.1-.7h-50c-1 3.5-1.9 7.1-2.8 10.9-3 14.4-5.2 38.8 11.6 45.3" opacity=".22"/></g><g><defs><path id="aa" d="M220.9 298.1s-23.8 7.4-19.5 29.4c.1.6.3 1.3.4 1.9 5.6 22 16.3 56.1 17.5 59.7.1.2.1.3.1.3h-5.8l2.6 4h26.9l3.1-11.5c2.6-10.6 5.9-27.1 6.3-42.6.3-9.4-.4-18.5-3-25.8-3.4-9.6-9.9-16.1-21.4-16.1-2.1-.1-4.6.2-7.2.7"/></defs><clipPath id="ab"><use xlink:href="#aa" overflow="visible"/></clipPath><linearGradient id="ac" gradientUnits="userSpaceOnUse" x1="173.631" y1="389.695" x2="178.563" y2="389.695" gradientTransform="matrix(1.038 7.6056 8.304 -.9508 -3197.93 -653.295)"><stop offset="0" stop-color="#FFC152"/><stop offset=".452" stop-color="#F7BB81"/><stop offset="1" stop-color="#F7BB81"/></linearGradient><path clip-path="url(#ab)" fill="url(#ac)" d="M252 291.1l13.8 100.8-67.9 7.8-13.7-100.9"/></g><path fill="#F5E2CE" d="M271.3 61l19.9-4.3 8.4 36.4-19.9 4.2"/><g><path fill="#4A0000" d="M299.8 91.2l-7.9-34c-.4-1.7-2.2-2.8-4.1-2.4l-14.9 3.1c-1.8.4-3 2.1-2.6 3.9l7.9 34c.4 1.7 2.2 2.8 4 2.5l14.9-3.1c1.9-.6 3.1-2.3 2.7-4m-20.8.3l-6.1-26.2 18.2-3.8 6.1 26.2-18.2 3.8z"/></g><g><defs><path id="ad" d="M272.4 82.2s-50.6 25.3-71.6 98.5c-1 3.5-1.9 7.1-2.8 10.9-3 14.4-5.2 38.8 11.6 45.3 23.9 9.2 37.2-28.6 41-54.7.1-.3.1-.5.1-.8 4.4-30.2 12.5-59.5 26.6-82.9 0 0 7.9-12.1 6.6-16.3-.4-1.4-1.9-1.9-3.6-1.9-3.3 0-7.9 1.9-7.9 1.9"/></defs><clipPath id="ae"><use xlink:href="#ad" overflow="visible"/></clipPath><linearGradient id="af" gradientUnits="userSpaceOnUse" x1="162.924" y1="395.634" x2="167.856" y2="395.634" gradientTransform="matrix(8.7135 4.6077 5.0308 -7.9807 -3197.52 2555.862)"><stop offset="0" stop-color="#FFC152"/><stop offset=".452" stop-color="#F7BB81"/><stop offset="1" stop-color="#F7BB81"/></linearGradient><path clip-path="url(#ae)" fill="url(#af)" d="M216 43.7l147.6 78.1-101.4 160.9-147.7-78.1"/></g><g><path fill="none" stroke="#4A0000" stroke-width=".654" stroke-linecap="round" stroke-miterlimit="10" d="M273.4 159.4c2.2-3.2 5.9-2.4 6.5 1.1"/><path fill="none" stroke="#4A0000" stroke-width=".49" stroke-linecap="round" stroke-miterlimit="10" d="M312.3 167.4c1.6-3.2 4.1-2.8 4.4.7"/><path fill="#4A0000" d="M304.1 174.6c-6.1 8.3-15.8 6.2-17.3-3.4l17.3 3.4z"/></g></svg>