<?xml version="1.0" encoding="UTF-8" standalone="no"?>
<svg width="512px" height="512px" viewBox="0 0 512 512" version="1.1" xmlns="http://www.w3.org/2000/svg" xmlns:xlink="http://www.w3.org/1999/xlink" xmlns:sketch="http://www.bohemiancoding.com/sketch/ns">
    <!-- Generator: Sketch 3.3.2 (12043) - http://www.bohemiancoding.com/sketch -->
    <title>Rectangle 1 Copy + Group Copy@2x</title>
    <desc>Created with Sketch.</desc>
    <defs></defs>
    <g id="Page-1" stroke="none" stroke-width="1" fill="none" fill-rule="evenodd" sketch:type="MSPage">
        <g id="Rectangle-1-Copy-+-Group-Copy" sketch:type="MSLayerGroup">
            <rect id="Rectangle-1-Copy" fill="#118298" sketch:type="MSShapeGroup" x="0" y="0" width="512" height="512"></rect>
            <g id="Group-Copy" transform="translate(255.987189, 246.773637) rotate(-12.500000) translate(-255.987189, -246.773637) translate(126.987189, 94.273637)" fill="#FDBD3C" sketch:type="MSShapeGroup">
                <path d="M121.37731,93.930689 L121.37731,289.02658 C62.0681255,285.122825 15.1704539,235.779372 15.1704539,175.482382 C15.1704539,171.292637 11.7739946,167.896178 7.58424987,167.896178 C3.39450509,167.896178 -0.00195412563,171.292637 -0.00195412563,175.482382 C-0.00195412563,244.161394 53.6827328,300.301675 121.37731,304.22843 L121.37731,304.44785 L136.549718,304.44785 L136.549718,304.22843 C204.244295,300.301675 257.928982,244.161394 257.928982,175.482382 C257.928982,171.292637 254.532522,167.896178 250.342778,167.896178 C246.153033,167.896178 242.756574,171.292637 242.756574,175.482382 C242.756574,235.779372 195.858902,285.122825 136.549718,289.02658 L136.549718,289.02658 L136.549718,93.930689 L197.23935,93.930689 C201.429094,93.930689 204.825554,90.5342298 204.825554,86.344485 C204.825554,82.1547402 201.429094,78.758281 197.23935,78.758281 L136.549718,78.758281 L136.549718,54.1031181 L136.549718,46.5169141 L121.37731,46.5169141 L121.37731,54.1031181 L121.37731,78.758281 L60.6876778,78.758281 C56.497933,78.758281 53.1014738,82.1547402 53.1014738,86.344485 C53.1014738,90.5342298 56.497933,93.930689 60.6876778,93.930689 L121.37731,93.930689 L121.37731,93.930689 Z" id="Shape"></path>
                <path d="M128.963514,61.689322 C145.722493,61.689322 159.30833,48.1034852 159.30833,31.3445061 C159.30833,14.585527 145.722493,0.999690122 128.963514,0.999690122 C112.204535,0.999690122 98.6186978,14.585527 98.6186978,31.3445061 C98.6186978,48.1034852 112.204535,61.689322 128.963514,61.689322 L128.963514,61.689322 L128.963514,61.689322 Z M128.963514,46.5169141 C120.584024,46.5169141 113.791106,39.7239956 113.791106,31.3445061 C113.791106,22.9650165 120.584024,16.1720981 128.963514,16.1720981 C137.343003,16.1720981 144.135922,22.9650165 144.135922,31.3445061 C144.135922,39.7239956 137.343003,46.5169141 128.963514,46.5169141 L128.963514,46.5169141 L128.963514,46.5169141 Z" id="Shape"></path>
            </g>
        </g>
    </g>
</svg>